Patient4_TMGait_0pt3_02_left_25_GRF.mot
version=1
nRows=78
nColumns=19
inDegrees=no
endheader
time	F1x	F1y	F1z	M1x	M1y	M1z	F2x	F2y	F2z	M2x	M2y	M2z	EC1x	EC1y	EC1z	EC2x	EC2y	EC2z
49.02	-2.5744	13.5982	5.0614	-4.5124	-7.1728	11.2339	-32.5988	777.8933	-45.9832	296.9386	62.7482	807.5726	-0.0592	0.0182	-0.0073	-0.0462	0.0165	0.9585
49.0393	-2.4892	9.916	3.7103	-3.3135	-5.386	8.303	-32.1788	795.1461	-47.048	303.5841	63.7262	823.6321	-0.0592	0.0182	-0.0073	-0.0462	0.0165	0.9585
49.0586	-2.0888	6.3482	2.4323	-2.1423	-3.6327	5.4152	-31.8752	815.0191	-47.8006	311.2636	64.3396	841.7029	-0.0592	0.0182	-0.0073	-0.0462	0.0165	0.9585
49.0779	-1.5607	3.3369	1.3744	-1.148	-2.141	2.949	-31.5012	836.0718	-48.1028	319.4174	64.3499	860.2859	-0.0592	0.0182	-0.0073	-0.0462	0.0165	0.9585
49.0971	-1.0419	1.0566	0.58711	-0.39211	-1.0059	1.0627	-30.8054	856.3591	-47.9307	327.2795	63.6212	877.4491	-0.0592	0.0182	-0.0073	-0.0462	0.0165	0.9585
49.1164	-0.60431	-0.50616	0.058665	0.12732	-0.22629	-0.24523	-29.5941	873.496	-47.3703	333.9063	62.161	890.9006	-0.0592	0.0182	-0.0073	-0.0462	0.0165	0.9585
49.1357	-0.27548	-1.4704	-0.25233	0.44909	0.24841	-1.066	-27.8257	884.9412	-46.5641	338.2954	60.1021	898.2571	-0.0592	0.0182	-0.0073	-0.0462	0.0165	0.9585
49.155	-0.058529	-2.0024	-0.39657	0.62909	0.48391	-1.5375	-25.5909	888.5992	-45.6419	339.6263	57.6271	897.614	-0.0592	0.0182	-0.0073	-0.0462	0.0165	0.9585
49.1743	0.056194	-2.281	-0.42482	0.72801	0.54552	-1.8131	-23.0023	883.4548	-44.6801	337.5079	54.8876	888.1302	-0.0592	0.0182	-0.0073	-0.0462	0.0165	0.9585
49.1936	0.085344	-2.4759	-0.38196	0.8029	0.49312	-2.0415	-20.1279	869.8371	-43.706	332.0792	51.9751	870.2477	-0.0592	0.0182	-0.0073	-0.0462	0.0165	0.9585
49.2129	0.049046	-2.734	-0.30458	0.90357	0.37817	-2.3543	-17.0131	849.2462	-42.7297	323.9365	48.9572	845.5119	-0.0592	0.0182	-0.0073	-0.0462	0.0165	0.9585
49.2321	-0.029353	-3.1705	-0.22014	1.0698	0.24302	-2.8634	-13.7068	823.9579	-41.7672	313.9761	45.9062	816.195	-0.0592	0.0182	-0.0073	-0.0462	0.0165	0.9585
49.2514	-0.12377	-3.8547	-0.15059	1.3263	0.1228	-3.6426	-10.2656	796.5864	-40.8515	303.2218	42.9026	784.861	-0.0592	0.0182	-0.0073	-0.0462	0.0165	0.9585
49.2707	-0.20754	-4.7974	-0.11552	1.6766	0.047205	-4.7038	-6.7463	769.6897	-40.0264	292.6736	40.0287	753.9837	-0.0592	0.0182	-0.0073	-0.0462	0.0165	0.9585
49.29	-0.25166	-5.9272	-0.13187	2.094	0.044198	-5.9697	-3.1814	745.4936	-39.323	283.2007	37.3408	725.6777	-0.0592	0.0182	-0.0073	-0.0462	0.0165	0.9585
49.3093	-0.21657	-7.0623	-0.21709	2.5093	0.14802	-7.2442	0.444	725.7271	-38.7426	275.4786	34.8442	701.545	-0.0592	0.0182	-0.0073	-0.0462	0.0165	0.9585
49.3286	-0.048351	-7.8639	-0.39133	2.7974	0.40067	-8.1656	4.1951	711.5269	-38.2615	269.9521	32.4932	682.6013	-0.0592	0.0182	-0.0073	-0.0462	0.0165	0.9585
49.3479	0.31906	-7.7879	-0.67335	2.7626	0.84596	-8.1568	8.1613	703.349	-37.8447	266.7999	30.214	669.2198	-0.0592	0.0182	-0.0073	-0.0462	0.0165	0.9585
49.3671	0.95836	-6.0603	-1.0732	2.1297	1.5196	-6.3956	12.4189	700.9082	-37.467	265.9077	27.9376	661.1011	-0.0592	0.0182	-0.0073	-0.0462	0.0165	0.9585
49.3864	1.9306	-1.688	-1.5857	0.54611	2.438	-1.8143	16.984	703.1855	-37.1372	266.8691	25.6432	657.3068	-0.0592	0.0182	-0.0073	-0.0462	0.0165	0.9585
49.4057	3.263	6.4698	-2.1732	-2.3946	3.5724	6.8197	21.7597	708.4534	-36.8981	268.9995	23.3778	656.3054	-0.0592	0.0182	-0.0073	-0.0462	0.0165	0.9585
49.425	4.9189	19.5317	-2.7479	-7.0866	4.8118	20.7244	26.4888	714.2888	-36.7952	271.3459	21.2561	656.0003	-0.0592	0.0182	-0.0073	-0.0462	0.0165	0.9585
49.4443	6.7442	38.2924	-3.1524	-13.7992	5.9244	40.7839	30.7521	717.7834	-36.8295	272.7744	19.4289	653.9233	-0.0592	0.0182	-0.0073	-0.0462	0.0165	0.9585
49.4636	8.3471	62.8164	-3.1508	-22.5307	6.505	67.1106	34.077	716.1116	-36.9082	272.1904	17.9986	647.713	-0.0592	0.0182	-0.0073	-0.0462	0.0165	0.9585
49.4829	9.025	92.1282	-2.4263	-32.9024	5.95	98.7193	36.0766	707.2094	-36.8581	268.7988	16.969	635.6802	-0.0592	0.0182	-0.0073	-0.0462	0.0165	0.9585
49.5021	8.3679	124.4157	-0.67013	-44.2379	3.7704	133.7285	36.5574	690.286	-36.5163	262.295	16.2815	617.2247	-0.0592	0.0182	-0.0073	-0.0462	0.0165	0.9585
49.5214	6.509	157.5996	2.1509	-55.7905	-0.027418	169.9035	35.5726	665.9643	-35.8106	252.9168	15.8639	592.9163	-0.0592	0.0182	-0.0073	-0.0462	0.0165	0.9585
49.5407	3.8243	189.9061	5.6284	-66.9637	-4.8578	205.2837	33.4072	635.9664	-34.7597	241.3299	15.6335	564.2081	-0.0592	0.0182	-0.0073	-0.0462	0.0165	0.9585
49.56	0.66072	220.4961	9.1673	-77.5102	-9.9398	238.9101	30.4901	602.5021	-33.4253	228.3932	15.4896	532.9268	-0.0592	0.0182	-0.0073	-0.0462	0.0165	0.9585
49.5793	-2.7449	249.3512	12.3146	-87.466	-14.6889	270.7165	27.2808	567.638	-31.8821	214.9142	15.3264	500.755	-0.0592	0.0182	-0.0073	-0.0462	0.0165	0.9585
49.5986	-6.1964	276.7043	14.8341	-96.938	-18.7716	300.91	24.1763	532.932	-30.2005	201.5077	15.0523	468.9364	-0.0592	0.0182	-0.0073	-0.0462	0.0165	0.9585
49.6179	-9.4713	302.6396	16.7155	-105.9603	-22.0905	329.5332	21.4381	499.4011	-28.458	188.5808	14.6281	438.2737	-0.0592	0.0182	-0.0073	-0.0462	0.0165	0.9585
49.6371	-12.3382	326.9322	18.1126	-114.4409	-24.72	356.2805	19.1744	467.6646	-26.7433	176.3829	14.0777	409.2569	-0.0592	0.0182	-0.0073	-0.0462	0.0165	0.9585
49.6564	-14.6131	349.2504	19.2012	-122.2442	-26.7775	380.7161	17.3901	438.1025	-25.1382	165.0656	13.4604	382.1872	-0.0592	0.0182	-0.0073	-0.0462	0.0165	0.9585
49.6757	-16.2126	369.5502	20.0728	-129.3404	-28.3295	402.724	16.0478	410.9493	-23.6981	154.7208	12.8333	357.2572	-0.0592	0.0182	-0.0073	-0.0462	0.0165	0.9585
49.695	-17.1595	388.2156	20.7424	-135.8541	-29.4022	422.6777	15.1071	386.3123	-22.4304	145.3891	12.216	334.5644	-0.0592	0.0182	-0.0073	-0.0462	0.0165	0.9585
49.7143	-17.5545	405.8789	21.2332	-141.993	-30.0598	441.2453	14.53	364.0971	-21.2948	137.0294	11.589	314.042	-0.0592	0.0182	-0.0073	-0.0462	0.0165	0.9585
49.7336	-17.5429	423.1803	21.6363	-147.955	-30.4534	459.1228	14.2545	343.9281	-20.2304	129.4894	10.9271	295.3908	-0.0592	0.0182	-0.0073	-0.0462	0.0165	0.9585
49.7529	-17.2751	440.6416	22.116	-153.8836	-30.8069	476.88	14.17	325.1174	-19.1813	122.496	10.2258	278.0541	-0.0592	0.0182	-0.0073	-0.0462	0.0165	0.9585
49.7721	-16.8571	458.693	22.8725	-159.8818	-31.3597	494.9559	14.1449	306.6672	-18.0986	115.6556	9.4917	261.2131	-0.0592	0.0182	-0.0073	-0.0462	0.0165	0.9585
49.7914	-16.3401	477.7277	24.1122	-166.0355	-32.3347	513.7262	14.0704	287.3506	-16.9413	108.4878	8.7254	243.8594	-0.0592	0.0182	-0.0073	-0.0462	0.0165	0.9585
49.8107	-15.7324	498.0746	26.0166	-172.4134	-33.9104	533.5019	13.8509	265.9582	-15.6763	100.5212	7.9235	224.9885	-0.0592	0.0182	-0.0073	-0.0462	0.0165	0.9585
49.83	-15.0024	519.94	28.6997	-179.0597	-36.1827	554.4776	13.3746	241.6425	-14.2809	91.425	7.0951	203.8882	-0.0592	0.0182	-0.0073	-0.0462	0.0165	0.9585
49.8493	-14.1084	543.3562	32.1588	-185.9861	-39.1307	576.6827	12.5424	214.2257	-12.7523	81.1262	6.2641	180.4036	-0.0592	0.0182	-0.0073	-0.0462	0.0165	0.9585
49.8686	-13.0325	568.151	36.2601	-193.1724	-42.6157	599.9665	11.3165	184.3592	-11.1146	69.8682	5.4555	155.0592	-0.0592	0.0182	-0.0073	-0.0462	0.0165	0.9585
49.8879	-11.7782	593.9818	40.7471	-200.5808	-46.3906	624.0249	9.7522	153.3916	-9.4151	58.1627	4.6804	128.9409	-0.0592	0.0182	-0.0073	-0.0462	0.0165	0.9585
49.9071	-10.376	620.4226	45.276	-208.1771	-50.1359	648.4792	7.9624	122.9519	-7.7096	46.6323	3.9386	103.363	-0.0592	0.0182	-0.0073	-0.0462	0.0165	0.9585
49.9264	-8.8903	647.001	49.504	-215.9234	-53.546	672.9014	6.0656	94.5342	-6.0491	35.8518	3.2312	79.5347	-0.0592	0.0182	-0.0073	-0.0462	0.0165	0.9585
49.9457	-7.3963	673.202	53.1671	-223.76	-56.3955	696.8055	4.1837	69.2599	-4.4834	26.2567	2.5651	58.367	-0.0592	0.0182	-0.0073	-0.0462	0.0165	0.9585
49.965	-5.9582	698.4822	56.107	-231.596	-58.5544	719.6576	2.4406	47.8304	-3.0676	18.1218	1.9554	40.432	-0.0592	0.0182	-0.0073	-0.0462	0.0165	0.9585
49.9843	-4.6233	722.3018	58.2467	-239.3118	-59.9604	740.9143	0.97479	30.5662	-1.8674	11.573	1.4191	25.9933	-0.0592	0.0182	-0.0073	-0.0462	0.0165	0.9585
50.0036	-3.4235	744.2249	59.5761	-246.7846	-60.6067	760.1224	-0.085105	17.4674	-0.9422	6.6102	0.9673	15.0475	-0.0592	0.0182	-0.0073	-0.0462	0.0165	0.9585
50.0229	-2.4041	764.0692	60.1419	-253.9405	-60.5467	777.087	-0.69419	8.2677	-0.31215	3.1299	0.60837	7.3682	-0.0592	0.0182	-0.0073	-0.0462	0.0165	0.9585
50.0421	-1.6383	782.0275	60.04	-260.7965	-59.888	791.999	-0.95135	2.4448	0.064539	0.93168	0.34648	2.5153	-0.0592	0.0182	-0.0073	-0.0462	0.0165	0.9585
50.0614	-1.1958	798.656	59.4203	-267.4606	-58.7862	805.4111	-0.98355	-0.73126	0.24899	-0.26206	0.17633	-0.12356	-0.0592	0.0182	-0.0073	-0.0462	0.0165	0.9585
50.0807	-1.0952	814.6871	58.4801	-274.0806	-57.4283	818.0403	-0.89331	-2.0289	0.30004	-0.74265	0.083474	-1.1923	-0.0592	0.0182	-0.0073	-0.0462	0.0165	0.9585
50.1	-1.2907	830.6655	57.4375	-280.7357	-56.0069	830.4076	-0.75548	-2.1329	0.26901	-0.7697	0.049371	-1.264	-0.0592	0.0182	-0.0073	-0.0462	0.0165	0.9585
50.1193	-1.6601	846.5626	56.4988	-287.3154	-54.687	842.4655	-0.61962	-1.5952	0.19825	-0.55338	0.055002	-0.80433	-0.0592	0.0182	-0.0073	-0.0462	0.0165	0.9585
50.1386	-2.0265	861.4573	55.8308	-293.4188	-53.5815	853.3093	-0.51262	-0.83042	0.11993	-0.25224	0.080692	-0.16761	-0.0592	0.0182	-0.0073	-0.0462	0.0165	0.9585
50.1579	-2.2152	873.4864	55.5268	-298.3454	-52.7407	861.1487	-0.44494	-0.13251	0.056152	0.019971	0.10948	0.39141	-0.0592	0.0182	-0.0073	-0.0462	0.0165	0.9585
50.1771	-2.0849	880.2711	55.56	-301.2493	-52.1139	863.7178	-0.41679	0.29769	0.021124	0.18492	0.12819	0.69218	-0.0592	0.0182	-0.0073	-0.0462	0.0165	0.9585
50.1964	-1.5199	879.6674	55.7773	-301.4026	-51.5336	858.9977	-0.4204	0.32766	0.021211	0.19102	0.12691	0.60601	-0.0592	0.0182	-0.0073	-0.0462	0.0165	0.9585
50.2157	-0.4494	870.4313	55.9522	-298.4149	-50.7715	845.8491	-0.44337	-0.12215	0.057631	0.0057549	0.098696	0.047704	-0.0592	0.0182	-0.0073	-0.0462	0.0165	0.9585
50.235	1.1553	852.6465	55.8652	-292.366	-49.6132	824.4144	-0.46632	-1.0813	0.12816	-0.38378	0.035287	-1.029	-0.0592	0.0182	-0.0073	-0.0462	0.0165	0.9585
50.2543	3.2997	827.8301	55.3857	-283.8277	-47.9309	796.1952	-0.46169	-2.5149	0.22391	-0.96419	-0.066988	-2.602	-0.0592	0.0182	-0.0073	-0.0462	0.0165	0.9585
50.2736	5.9657	798.6674	54.5104	-273.7652	-45.7221	763.781	-0.39258	-4.2865	0.32837	-1.6818	-0.20622	-4.5327	-0.0592	0.0182	-0.0073	-0.0462	0.0165	0.9585
50.2929	9.1359	768.4941	53.3528	-263.3562	-43.0951	730.3404	-0.21214	-6.1043	0.41394	-2.421	-0.37102	-6.5149	-0.0592	0.0182	-0.0073	-0.0462	0.0165	0.9585
50.3121	12.8028	740.6314	52.1114	-253.7594	-40.2321	698.9893	0.1333	-7.4592	0.43847	-2.9787	-0.53643	-8.006	-0.0592	0.0182	-0.0073	-0.0462	0.0165	0.9585
50.3314	16.9306	717.7048	51.0037	-245.879	-37.3393	672.1798	0.69623	-7.5635	0.34347	-3.0389	-0.65884	-8.1639	-0.0592	0.0182	-0.0073	-0.0462	0.0165	0.9585
50.3507	21.4336	701.0997	50.1977	-240.1832	-34.5971	651.2342	1.5131	-5.3022	0.050878	-2.1537	-0.66847	-5.8004	-0.0592	0.0182	-0.0073	-0.0462	0.0165	0.9585
50.37	26.1525	690.6828	49.7764	-236.6104	-32.1391	636.1126	2.5817	0.76532	-0.53172	0.25736	-0.4612	0.62481	-0.0592	0.0182	-0.0073	-0.0462	0.0165	0.9585
50.3893	30.8306	684.8121	49.7398	-234.5722	-30.0668	625.436	3.8291	12.3146	-1.498	4.8713	0.10359	12.9076	-0.0592	0.0182	-0.0073	-0.0462	0.0165	0.9585
50.4086	35.115	680.6105	50.0006	-233.0543	-28.4436	616.7465	5.0667	31.0317	-2.9211	12.3712	1.1945	32.8583	-0.0592	0.0182	-0.0073	-0.0462	0.0165	0.9585
50.4279	38.5976	674.5114	50.3667	-230.8134	-27.2645	606.9974	5.8771	58.2443	-4.8203	23.2988	3.0121	61.9084	-0.0592	0.0182	-0.0073	-0.0462	0.0165	0.9585
50.4471	40.8745	662.9685	50.56	-226.6279	-26.4482	593.1729	5.499	94.3905	-7.1327	37.8424	5.8006	100.5498	-0.0592	0.0182	-0.0073	-0.0462	0.0165	0.9585
50.4664	41.6589	643.2289	50.2682	-219.5672	-25.8375	572.934	3.2492	138.6755	-9.7389	55.6931	9.6985	147.9687	-0.0592	0.0182	-0.0073	-0.0462	0.0165	0.9585
50.4857	40.8904	613.983	49.228	-209.2082	-25.2304	545.15	-0.83064	189.0479	-12.5622	76.0169	14.5928	201.9698	-0.0592	0.0182	-0.0073	-0.0462	0.0165	0.9585
50.505	38.7467	575.6247	47.3039	-195.7177	-24.4469	510.1132	-6.2163	242.1113	-15.6974	97.4119	20.3404	258.8421	-0.0592	0.0182	-0.0073	-0.0462	0.0165	0.9585
